 http://desibbrg.org/images/66952052392581364616.gif 
http://desibbrg.org/images/65429487190923960181.png 
http://desibbrg.org/images/59939965115942308870.png 
http://desibbrg.org/images/69528636670745541795.png 
http://desibbrg.org/images/58353972294450644351.png

Media Info - 
Video
ID : 224 (0xE0)
Format : MPEG Video
Format version : Version 2
Format profile : Main@Main
Format settings, BVOP : Yes
Format settings, Matrix : Default
Format settings, GOP : M=3, N=13
Duration : 1h 25mn
Bit rate mode : Variable
Bit rate : 569 Kbps
Maximum bit rate : 9 072 Kbps
Width : 352 pixels
Height : 288 pixels
Display aspect ratio : 4:3
Frame rate : 25.000 fps
Standard : PAL
Color space : YUV
Chroma subsampling : 4:2:0
Bit depth : 8 bits
Scan type : Progressive
Compression mode : Lossy
Bits/(Pixel*Frame) : 0.224
Stream size : 346 MiB (80%)

Audio
ID : 192 (0xC0)
Format : MPEG Audio
Format version : Version 1
Format profile : Layer 2
Duration : 1h 25mn
Bit rate mode : Constant
Bit rate : 128 Kbps
Channel(s) : 2 channels
Sampling rate : 48.0 KHz
Compression mode : Lossy
Delay relative to video : -1s 40ms
Stream size : 78.0 MiB (18%)

Credits to Original Sharer DDD...;)

Seeding 24x7... Extreme Seeding...


Enjoy!
